<svg xmlns="http://www.w3.org/2000/svg"><symbol id="close" viewBox="0 0 256 256"><path fill="none" stroke="#000" stroke-miterlimit="10" stroke-width="45" d="M24.4 24.4l207.2 207.2m-207.2 0L231.6 24.4"/></symbol><symbol id="logo" viewBox="0 0 256 256"><path fill="#4d8f99" d="M33.4 62.4h5.8v53.1h24.1v5.3h-30zm54.7-1c16.4 0 30.9 13 30.9 30.2s-14.6 30.2-30.9 30.2-30.8-13.5-30.8-29.9c0-18.4 15.3-30.5 30.8-30.5zm0 55.1a24.9 24.9 0 1 0-25-24.6c0 13.3 11.4 24.6 25 24.6z"/><path fill="#4d8f99" d="M131 101.3l-20.3-38.9h6.5l16.6 32.7 17.1-32.7h6.4l-20.5 38.9v19.5H131zm33.9-38.9h6.5l25.1 58.4h-6.4l-8.4-19.6h-27.2l-8.5 19.6h-6.1zm-8.1 33.4h22.6L168.2 69zm42.3-33.4h5.9v53.1h24.1v5.3h-30zM5.5 128h14.9c7.8 0 11.7.9 14.4 2.2a18.1 18.1 0 0 1 10.4 16.6c0 8.4-6.1 17-17.4 17.7l16.5 21.8h-7.4l-19.8-26.4c7.4 0 9.9-.1 12.5-.9a12.8 12.8 0 0 0 9.6-12.4c0-4.6-2.6-9.3-6.4-11.2s-6.5-2.2-11.4-2.2h-10v53.1H5.5zm41.6 0H79v5.3H52.9v21h25.3v5.3H52.9v21.5H79v5.3H47.1zm38 42c.3 7.3 5 12.1 12.1 12.1a11.6 11.6 0 0 0 11.8-11.6c0-9-9.1-11.3-13-12.5s-15.1-3.8-15.1-15.4c0-9.1 7.2-15.7 16.4-15.7a15.8 15.8 0 0 1 16.2 15.9h-5.8a10.5 10.5 0 0 0-10.3-10.6 10.2 10.2 0 0 0-10.6 10.2c0 7.1 6.2 8.8 13.9 11 14.4 3.9 14.3 15.1 14.3 16.9a17.3 17.3 0 0 1-17.6 17.1c-7.6 0-17.7-4.5-18-17.4zm87.8 1.1a30.9 30.9 0 0 1-26.9 16.3c-16.3 0-30.5-12.9-30.5-30.1a30.1 30.1 0 0 1 30.4-30.3c15 0 24.5 10.5 26.7 15.9h-6.5c-6.4-9.5-16.7-10.6-20.3-10.6-13.6 0-24.5 12-24.5 25s12 24.8 24.6 24.8c2.9 0 12.5-.4 20.4-11zm8.8-43.1v36.4c0 4.3.6 8.1 2 10.6a13.7 13.7 0 0 0 24.1 0c1.3-2.4 2-6.3 2-10.6V128h5.8v36.4a29.6 29.6 0 0 1-2.2 12.1c-4 8.8-12.2 10.9-17.7 10.9s-13.6-2.1-17.7-10.9a29.6 29.6 0 0 1-2.2-12.1V128zm37.5 0h31.9v5.3h-26v21h25.2v5.3h-25.2v21.5h26.1v5.3h-32z"/></symbol><symbol id="facebook" viewBox="0 0 256 256"><path d="M128 3a125 125 0 0 0-3.6 250v-93.8H90.2v-39.6h34.2V90.3c0-33.9 20.7-52.4 51-52.4a281.5 281.5 0 0 1 30.6 1.6V75h-21c-16.5 0-19.6 7.8-19.6 19.3v25.3h39.3l-5.1 39.6h-34.2v88.2A125 125 0 0 0 128 3z"/></symbol><symbol id="error" viewBox="0 0 256 256"><path d="M128 3a125 125 0 1 0 125 125A125 125 0 0 0 128 3zm23 219.1a10 10 0 0 1-10 10h-26a10 10 0 0 1-10-10v-26a10 10 0 0 1 10-10h26a10 10 0 0 1 10 10zm9.2-179.6l-8.5 113.7a10 10 0 0 1-10 9.3h-27.4a10 10 0 0 1-10-9.2L95.8 42.6a10 10 0 0 1 10-10.8h44.5a10 10 0 0 1 9.9 10.8z"/></symbol><symbol id="hamburger" viewBox="0 0 256 256"><path fill="none" stroke="#000" stroke-miterlimit="10" stroke-width="45" d="M2.4 54.8h251.2M2.4 128h251.2M2.4 201.2h251.2"/></symbol><symbol id="twitter" viewBox="0 0 256 256"><path d="M253 128A125 125 0 1 1 128 3a125 125 0 0 1 125 125zM99.5 209.6c70.2 0 108.6-58.2 108.6-108.6 0-1.7 0-3.3-.1-4.9a77.7 77.7 0 0 0 19-19.8 76.2 76.2 0 0 1-21.9 6 38.3 38.3 0 0 0 16.8-21.1 76.5 76.5 0 0 1-24.2 9.3 38.2 38.2 0 0 0-65 34.8 108.4 108.4 0 0 1-78.8-39.9 38.2 38.2 0 0 0 11.8 51 37.9 37.9 0 0 1-17.3-4.8v.5A38.2 38.2 0 0 0 79 149.5a38.1 38.1 0 0 1-17.2.7 38.2 38.2 0 0 0 35.7 26.5A76.6 76.6 0 0 1 50.1 193a77.7 77.7 0 0 1-9.1-.5 108 108 0 0 0 58.5 17.1z"/></symbol><symbol id="prev" viewBox="0 0 256 256"><path fill="none" stroke="#000" stroke-miterlimit="10" stroke-width="45" d="M179.8 24.4L76.2 128l103.6 103.6"/></symbol><symbol id="next" viewBox="0 0 256 256"><path fill="none" stroke="#000" stroke-miterlimit="10" stroke-width="45" d="M76.2 231.6L179.8 128 76.2 24.4"/></symbol></svg>