<svg xmlns="http://www.w3.org/2000/svg"><symbol id="close" viewBox="0 0 256 256"><path fill="none" stroke-miterlimit="10" stroke-width="45" d="M24.4 24.4l207.2 207.2m-207.2 0L231.6 24.4"/></symbol><symbol id="facebook" viewBox="0 0 256 256"><path d="M128 3a125 125 0 0 0-3.6 250v-93.8H90.2v-39.6h34.2V90.3c0-33.9 20.7-52.4 51-52.4a281.5 281.5 0 0 1 30.6 1.6V75h-21c-16.5 0-19.6 7.8-19.6 19.3v25.3h39.3l-5.1 39.6h-34.2v88.2A125 125 0 0 0 128 3z"/></symbol><symbol id="hamburger" viewBox="0 0 256 256"><path fill="none" stroke-miterlimit="10" stroke-width="45" d="M2.4 54.8h251.2M2.4 128h251.2M2.4 201.2h251.2"/></symbol><symbol id="next" viewBox="0 0 256 256"><path fill="none" stroke-miterlimit="10" stroke-width="45" d="M76.2 231.6L179.8 128 76.2 24.4"/></symbol><symbol id="prev" viewBox="0 0 256 256"><path fill="none" stroke-miterlimit="10" stroke-width="45" d="M179.8 24.4L76.2 128l103.6 103.6"/></symbol><symbol id="twitter" viewBox="0 0 256 256"><path d="M253 128A125 125 0 1 1 128 3a125 125 0 0 1 125 125zM99.5 209.6c70.2 0 108.6-58.2 108.6-108.6 0-1.7 0-3.3-.1-4.9a77.7 77.7 0 0 0 19-19.8 76.2 76.2 0 0 1-21.9 6 38.3 38.3 0 0 0 16.8-21.1 76.5 76.5 0 0 1-24.2 9.3 38.2 38.2 0 0 0-65 34.8 108.4 108.4 0 0 1-78.8-39.9 38.2 38.2 0 0 0 11.8 51 37.9 37.9 0 0 1-17.3-4.8v.5A38.2 38.2 0 0 0 79 149.5a38.1 38.1 0 0 1-17.2.7 38.2 38.2 0 0 0 35.7 26.5A76.6 76.6 0 0 1 50.1 193a77.7 77.7 0 0 1-9.1-.5 108 108 0 0 0 58.5 17.1z"/></symbol></svg>
