<svg xmlns="http://www.w3.org/2000/svg" width="256" height="256" data-name="Layer 1" viewBox="0 0 256 256"><path fill="#4d8f99" d="M33.4 62.4h5.8v53.1h24.1v5.3h-30zm54.7-1c16.4 0 30.9 13 30.9 30.2s-14.6 30.2-30.9 30.2-30.8-13.5-30.8-29.9c0-18.4 15.3-30.5 30.8-30.5zm0 55.1a24.9 24.9 0 1 0-25-24.6c0 13.3 11.4 24.6 25 24.6z"/><path fill="#4d8f99" d="M131 101.3l-20.3-38.9h6.5l16.6 32.7 17.1-32.7h6.4l-20.5 38.9v19.5H131zm33.9-38.9h6.5l25.1 58.4h-6.4l-8.4-19.6h-27.2l-8.5 19.6h-6.1zm-8.1 33.4h22.6L168.2 69zm42.3-33.4h5.9v53.1h24.1v5.3h-30zM5.5 128h14.9c7.8 0 11.7.9 14.4 2.2a18.1 18.1 0 0 1 10.4 16.6c0 8.4-6.1 17-17.4 17.7l16.5 21.8h-7.4l-19.8-26.4c7.4 0 9.9-.1 12.5-.9a12.8 12.8 0 0 0 9.6-12.4c0-4.6-2.6-9.3-6.4-11.2s-6.5-2.2-11.4-2.2h-10v53.1H5.5zm41.6 0H79v5.3H52.9v21h25.3v5.3H52.9v21.5H79v5.3H47.1zm38 42c.3 7.3 5 12.1 12.1 12.1a11.6 11.6 0 0 0 11.8-11.6c0-9-9.1-11.3-13-12.5s-15.1-3.8-15.1-15.4c0-9.1 7.2-15.7 16.4-15.7a15.8 15.8 0 0 1 16.2 15.9h-5.8a10.5 10.5 0 0 0-10.3-10.6 10.2 10.2 0 0 0-10.6 10.2c0 7.1 6.2 8.8 13.9 11 14.4 3.9 14.3 15.1 14.3 16.9a17.3 17.3 0 0 1-17.6 17.1c-7.6 0-17.7-4.5-18-17.4zm87.8 1.1a30.9 30.9 0 0 1-26.9 16.3c-16.3 0-30.5-12.9-30.5-30.1a30.1 30.1 0 0 1 30.4-30.3c15 0 24.5 10.5 26.7 15.9h-6.5c-6.4-9.5-16.7-10.6-20.3-10.6-13.6 0-24.5 12-24.5 25s12 24.8 24.6 24.8c2.9 0 12.5-.4 20.4-11zm8.8-43.1v36.4c0 4.3.6 8.1 2 10.6a13.7 13.7 0 0 0 24.1 0c1.3-2.4 2-6.3 2-10.6V128h5.8v36.4a29.6 29.6 0 0 1-2.2 12.1c-4 8.8-12.2 10.9-17.7 10.9s-13.6-2.1-17.7-10.9a29.6 29.6 0 0 1-2.2-12.1V128zm37.5 0h31.9v5.3h-26v21h25.2v5.3h-25.2v21.5h26.1v5.3h-32z"/></svg>