<svg xmlns="http://www.w3.org/2000/svg" width="256" height="256" viewBox="0 0 256 256"><path d="M253 128A125 125 0 1 1 128 3a125 125 0 0 1 125 125zM99.5 209.6c70.2 0 108.6-58.2 108.6-108.6 0-1.7 0-3.3-.1-4.9a77.7 77.7 0 0 0 19-19.8 76.2 76.2 0 0 1-21.9 6 38.3 38.3 0 0 0 16.8-21.1 76.5 76.5 0 0 1-24.2 9.3 38.2 38.2 0 0 0-65 34.8 108.4 108.4 0 0 1-78.8-39.9 38.2 38.2 0 0 0 11.8 51 37.9 37.9 0 0 1-17.3-4.8v.5A38.2 38.2 0 0 0 79 149.5a38.1 38.1 0 0 1-17.2.7 38.2 38.2 0 0 0 35.7 26.5A76.6 76.6 0 0 1 50.1 193a77.7 77.7 0 0 1-9.1-.5 108 108 0 0 0 58.5 17.1z"/></svg>